<svg width="408.801" height="76.402" viewBox="0 0 408.801 76.402" xmlns="http://www.w3.org/2000/svg"><g id="svgGroup" stroke-linecap="round" fill-rule="evenodd" font-size="9pt" stroke="#000" stroke-width="0.25mm" fill="#ffffff" style="stroke:#000;stroke-width:0.25mm;fill:#ffffff"><path d="M 64.8 72.7 L 56.1 76.2 L 48.3 56.2 L 15.9 56.2 L 8.1 76 L 0 72.7 L 27.4 5.2 L 37.8 5.2 L 64.8 72.7 Z M 369.5 71 L 373.3 63.5 A 18.557 18.557 0 0 0 376.444 65.626 Q 377.998 66.47 379.85 67.15 A 24.073 24.073 0 0 0 387.461 68.587 A 27.464 27.464 0 0 0 388.3 68.6 Q 393.692 68.6 396.535 66.885 A 7.738 7.738 0 0 0 396.75 66.75 Q 399.6 64.9 399.6 62 A 7.123 7.123 0 0 0 399.286 59.853 A 6.212 6.212 0 0 0 398.55 58.3 A 6.384 6.384 0 0 0 397.621 57.206 Q 396.607 56.234 394.934 55.281 A 22.3 22.3 0 0 0 394.7 55.15 A 28.462 28.462 0 0 0 392.706 54.157 Q 390.59 53.195 387.601 52.146 A 103.602 103.602 0 0 0 386.6 51.8 A 46.616 46.616 0 0 1 382.202 50.057 Q 380.088 49.083 378.412 47.995 A 19.335 19.335 0 0 1 375.65 45.85 A 11.324 11.324 0 0 1 372.356 39.854 A 16.794 16.794 0 0 1 372 36.3 Q 372 30.3 377.25 26.15 Q 381.654 22.669 388.908 22.108 A 37.527 37.527 0 0 1 391.8 22 A 40.794 40.794 0 0 1 396.246 22.231 Q 398.554 22.484 400.57 23.016 A 25.234 25.234 0 0 1 400.7 23.05 Q 404.6 24.1 407.7 25.7 L 405.2 33.1 Q 402.5 31.5 399.05 30.5 A 25.024 25.024 0 0 0 394.567 29.653 A 31.837 31.837 0 0 0 391.4 29.5 A 20.632 20.632 0 0 0 388.463 29.695 Q 385.377 30.14 383.5 31.6 A 9.322 9.322 0 0 0 382.142 32.874 Q 381.44 33.692 381.105 34.565 A 4.529 4.529 0 0 0 380.8 36.2 A 4.921 4.921 0 0 0 382.295 39.752 A 7.082 7.082 0 0 0 382.9 40.3 Q 384.965 41.972 390.898 43.934 A 84.459 84.459 0 0 0 391.1 44 A 67.753 67.753 0 0 1 396.162 45.898 Q 402.089 48.417 404.9 51.3 Q 408.8 55.3 408.8 61.3 Q 408.8 68.048 403.549 72.055 A 16.618 16.618 0 0 1 403.15 72.35 Q 398.41 75.748 390.962 76.295 A 40.423 40.423 0 0 1 388 76.4 Q 382.1 76.4 377.35 74.9 A 30.883 30.883 0 0 1 373.51 73.415 Q 371.529 72.484 369.948 71.336 A 18.229 18.229 0 0 1 369.5 71 Z M 83.8 75.2 L 74.8 75.2 L 74.8 32.9 L 66.8 32.9 L 66.8 25.1 L 74.8 25.1 L 74.8 19 A 25.495 25.495 0 0 1 75.426 13.182 Q 76.534 8.452 79.602 5.203 A 16.387 16.387 0 0 1 79.7 5.1 A 16.367 16.367 0 0 1 90.104 0.125 A 22.463 22.463 0 0 1 92.5 0 A 29.982 29.982 0 0 1 96.01 0.195 Q 97.755 0.401 99.271 0.825 A 17.884 17.884 0 0 1 99.7 0.95 Q 102.8 1.9 105.6 3.3 L 102.9 10.9 Q 100.8 9.8 98.4 8.9 A 14.172 14.172 0 0 0 94.778 8.079 A 17.356 17.356 0 0 0 93.1 8 A 10.802 10.802 0 0 0 90.071 8.405 A 8.291 8.291 0 0 0 86.35 10.65 A 8.462 8.462 0 0 0 84.403 14.019 Q 83.8 15.92 83.8 18.4 L 83.8 25.1 L 99.2 25.1 L 99.2 32.9 L 83.8 32.9 L 83.8 75.2 Z M 288.3 28.4 L 288.3 1.2 L 297.3 1.2 L 297.3 62.6 A 12.15 12.15 0 0 0 297.402 64.236 Q 297.734 66.67 299.15 67.55 Q 301 68.7 303.2 68.7 L 301.3 75.7 Q 291.8 75.7 289.7 68.1 Q 287.5 71.2 283.55 73.8 Q 279.6 76.4 273.6 76.4 Q 267.2 76.4 261.9 73.1 A 22.692 22.692 0 0 1 254.362 65.309 A 27.622 27.622 0 0 1 253.5 63.75 A 27.533 27.533 0 0 1 250.912 55.808 A 37.221 37.221 0 0 1 250.4 49.5 A 33.94 33.94 0 0 1 251.289 41.586 A 27.963 27.963 0 0 1 253.55 35.4 A 27.291 27.291 0 0 1 258.169 28.809 A 24.186 24.186 0 0 1 261.95 25.6 Q 267.2 22 273.5 22 A 21.642 21.642 0 0 1 277.772 22.402 A 15.942 15.942 0 0 1 282.45 24.1 A 34.343 34.343 0 0 1 285.03 25.689 Q 286.254 26.524 287.225 27.374 A 16.59 16.59 0 0 1 288.3 28.4 Z M 228.8 27.4 L 228.8 23.2 L 237 23.2 L 237 62.6 A 12.15 12.15 0 0 0 237.102 64.236 Q 237.434 66.67 238.85 67.55 Q 240.7 68.7 242.9 68.7 L 241 75.7 A 17.722 17.722 0 0 1 236.735 75.228 Q 231.098 73.828 229.503 68.28 A 13.59 13.59 0 0 1 229.4 67.9 A 21.307 21.307 0 0 1 226.29 71.326 A 28.498 28.498 0 0 1 223.15 73.75 Q 219.2 76.4 213.1 76.4 Q 206.6 76.4 201.3 73.1 A 22.947 22.947 0 0 1 193.887 65.574 A 27.923 27.923 0 0 1 192.85 63.75 A 27.228 27.228 0 0 1 190.22 55.808 A 36.644 36.644 0 0 1 189.7 49.5 A 33.142 33.142 0 0 1 190.697 41.231 A 27.968 27.968 0 0 1 192.85 35.5 Q 196 29.3 201.55 25.65 A 22.297 22.297 0 0 1 212.745 22.044 A 27.388 27.388 0 0 1 214.3 22 A 22.584 22.584 0 0 1 219.094 22.491 A 18.703 18.703 0 0 1 222.45 23.55 A 26.002 26.002 0 0 1 226.737 25.844 A 22.103 22.103 0 0 1 228.8 27.4 Z M 133.1 58.9 L 133.1 1.2 L 142.1 1.2 L 142.1 58 A 20.644 20.644 0 0 0 142.288 60.888 Q 142.75 64.152 144.35 66 A 7.363 7.363 0 0 0 148.934 68.476 A 10.724 10.724 0 0 0 150.6 68.6 Q 152.5 68.6 154.35 68.15 A 22.192 22.192 0 0 0 155.813 67.744 Q 156.748 67.447 157.5 67.1 L 159.7 74.4 Q 158.301 75.022 156.388 75.523 A 34.978 34.978 0 0 1 155.25 75.8 A 23.816 23.816 0 0 1 152.095 76.285 A 30.514 30.514 0 0 1 149.4 76.4 A 20.862 20.862 0 0 1 144.51 75.846 A 17.544 17.544 0 0 1 141.1 74.65 A 12.683 12.683 0 0 1 135.775 69.885 A 15.856 15.856 0 0 1 135.25 69 Q 133.516 65.854 133.18 61.212 A 32.105 32.105 0 0 1 133.1 58.9 Z M 322.8 72.95 A 24.559 24.559 0 0 0 327.398 75.04 Q 331.453 76.4 336.1 76.4 Q 343.5 76.4 349.35 73 Q 355.2 69.6 358.6 63.45 A 26.255 26.255 0 0 0 361.253 56.309 A 34.184 34.184 0 0 0 362 49 A 34.542 34.542 0 0 0 361.515 43.092 A 25.795 25.795 0 0 0 358.55 34.65 Q 355.1 28.6 349.25 25.3 A 24.848 24.848 0 0 0 344.609 23.273 A 27.738 27.738 0 0 0 336.1 22 A 31.325 31.325 0 0 0 334.52 22.04 A 26.169 26.169 0 0 0 322.9 25.3 Q 317 28.6 313.6 34.7 A 26.023 26.023 0 0 0 310.851 42.29 A 35.006 35.006 0 0 0 310.2 49.2 A 34.82 34.82 0 0 0 310.465 53.554 A 27.451 27.451 0 0 0 313.55 63.35 Q 316.9 69.5 322.8 72.95 Z M 117.6 75.2 L 108.6 75.2 L 108.6 23.2 L 117.6 23.2 L 117.6 75.2 Z M 177.2 75.2 L 168.2 75.2 L 168.2 23.2 L 177.2 23.2 L 177.2 75.2 Z M 336.1 68.4 Q 344 68.4 348.4 63.05 A 18.802 18.802 0 0 0 352.219 54.96 A 27.105 27.105 0 0 0 352.8 49.2 Q 352.8 44 350.6 39.65 A 19.198 19.198 0 0 0 346.428 34.081 A 18.17 18.17 0 0 0 344.65 32.65 Q 340.9 30 336.1 30 A 19.249 19.249 0 0 0 330.874 30.672 A 14.037 14.037 0 0 0 323.8 35.2 A 17.878 17.878 0 0 0 320.126 42.574 Q 319.4 45.506 319.4 49 Q 319.4 54.2 321.6 58.65 A 19.437 19.437 0 0 0 325.13 63.69 A 17.627 17.627 0 0 0 327.55 65.75 Q 331.3 68.4 336.1 68.4 Z M 228 61.9 L 228 34 Q 225.3 32.1 222.05 30.95 Q 218.8 29.8 215.2 29.8 A 15.924 15.924 0 0 0 210.229 30.554 A 14.024 14.024 0 0 0 206.75 32.25 A 16.301 16.301 0 0 0 201.731 37.674 A 19.962 19.962 0 0 0 201 39.05 A 20.663 20.663 0 0 0 199.247 44.727 A 27.678 27.678 0 0 0 198.9 49.2 Q 198.9 54.8 201 59.15 A 17.602 17.602 0 0 0 204.106 63.696 A 15.697 15.697 0 0 0 206.8 65.95 Q 210.5 68.4 215.1 68.4 Q 218.9 68.4 222.3 66.55 Q 225.7 64.7 228 61.9 Z M 288.3 62.1 L 288.3 36.3 A 15.847 15.847 0 0 0 286.189 34.127 Q 285.068 33.164 283.669 32.266 A 28.139 28.139 0 0 0 283 31.85 Q 279.6 29.8 275.5 29.8 A 14.946 14.946 0 0 0 270.544 30.6 A 13.385 13.385 0 0 0 267.1 32.4 A 16.69 16.69 0 0 0 261.93 38.55 A 19.924 19.924 0 0 0 261.55 39.35 A 22.19 22.19 0 0 0 259.81 45.715 A 28.113 28.113 0 0 0 259.6 49.2 A 24.757 24.757 0 0 0 260.193 54.719 A 20.327 20.327 0 0 0 261.7 59.05 A 18.205 18.205 0 0 0 264.74 63.564 A 16.122 16.122 0 0 0 267.45 65.9 Q 271.1 68.4 275.6 68.4 Q 279.3 68.4 282.65 66.65 Q 286 64.9 288.3 62.1 Z M 32.1 14.6 L 18.9 48.2 L 45.2 48.2 L 32.1 14.6 Z M 108.737 12.488 A 5.973 5.973 0 0 0 113.1 14.3 A 8.175 8.175 0 0 0 114.596 14.169 A 5.647 5.647 0 0 0 117.7 12.55 Q 119.4 10.8 119.4 8 A 7.26 7.26 0 0 0 119.4 7.919 A 6.06 6.06 0 0 0 117.55 3.55 A 7.395 7.395 0 0 0 117.492 3.493 A 6.059 6.059 0 0 0 113.1 1.7 A 8.264 8.264 0 0 0 111.444 1.858 A 5.661 5.661 0 0 0 108.5 3.4 A 5.588 5.588 0 0 0 107.029 6.032 A 7.987 7.987 0 0 0 106.8 8 A 5.992 5.992 0 0 0 107.292 10.419 A 6.643 6.643 0 0 0 108.65 12.4 A 7.466 7.466 0 0 0 108.737 12.488 Z M 168.337 12.488 A 5.973 5.973 0 0 0 172.7 14.3 A 8.175 8.175 0 0 0 174.196 14.169 A 5.647 5.647 0 0 0 177.3 12.55 Q 179 10.8 179 8 A 7.26 7.26 0 0 0 179 7.919 A 6.06 6.06 0 0 0 177.15 3.55 A 7.395 7.395 0 0 0 177.092 3.493 A 6.059 6.059 0 0 0 172.7 1.7 A 8.264 8.264 0 0 0 171.044 1.858 A 5.661 5.661 0 0 0 168.1 3.4 A 5.588 5.588 0 0 0 166.629 6.032 A 7.987 7.987 0 0 0 166.4 8 A 5.992 5.992 0 0 0 166.892 10.419 A 6.643 6.643 0 0 0 168.25 12.4 A 7.466 7.466 0 0 0 168.337 12.488 Z" vector-effect="non-scaling-stroke"/></g></svg>